<mxfile host="app.diagrams.net" agent="Mozilla/5.0 (Windows NT 10.0; Win64; x64) AppleWebKit/537.36 (KHTML, like Gecko) Chrome/135.0.0.0 Safari/537.36 Edg/135.0.0.0" version="27.0.6">
  <diagram name="Page-1" id="5f0bae14-7c28-e335-631c-24af17079c00">
    <mxGraphModel dx="978" dy="548" grid="0" gridSize="10" guides="1" tooltips="1" connect="1" arrows="1" fold="1" page="1" pageScale="1" pageWidth="1100" pageHeight="850" background="none" math="0" shadow="0">
      <root>
        <mxCell id="0" />
        <mxCell id="1" parent="0" />
        <mxCell id="rF9rNR6BdO1XXaO5pgB1-22" value="" style="edgeStyle=orthogonalEdgeStyle;rounded=0;orthogonalLoop=1;jettySize=auto;html=1;dashed=1;shape=link;" edge="1" parent="1" source="rF9rNR6BdO1XXaO5pgB1-1" target="rF9rNR6BdO1XXaO5pgB1-14">
          <mxGeometry relative="1" as="geometry" />
        </mxCell>
        <mxCell id="rF9rNR6BdO1XXaO5pgB1-37" style="edgeStyle=orthogonalEdgeStyle;rounded=0;orthogonalLoop=1;jettySize=auto;html=1;entryX=0;entryY=0.5;entryDx=0;entryDy=0;dashed=1;shape=link;" edge="1" parent="1" source="rF9rNR6BdO1XXaO5pgB1-1" target="rF9rNR6BdO1XXaO5pgB1-2">
          <mxGeometry relative="1" as="geometry" />
        </mxCell>
        <mxCell id="rF9rNR6BdO1XXaO5pgB1-1" value="vibraniumdome-app&lt;div&gt;&lt;br&gt;&lt;/div&gt;&lt;div&gt;&lt;br&gt;&lt;/div&gt;&lt;div&gt;&lt;br&gt;&lt;div&gt;&lt;br&gt;&lt;/div&gt;&lt;div&gt;&lt;br&gt;&lt;/div&gt;&lt;/div&gt;" style="rounded=0;whiteSpace=wrap;html=1;" vertex="1" parent="1">
          <mxGeometry x="162" y="103" width="455" height="94" as="geometry" />
        </mxCell>
        <mxCell id="rF9rNR6BdO1XXaO5pgB1-2" value="vibraniumdome-shields&lt;div&gt;&lt;br&gt;&lt;/div&gt;&lt;div&gt;&lt;br&gt;&lt;/div&gt;&lt;div&gt;&lt;br&gt;&lt;/div&gt;&lt;div&gt;&lt;br&gt;&lt;/div&gt;" style="rounded=0;whiteSpace=wrap;html=1;" vertex="1" parent="1">
          <mxGeometry x="666" y="197" width="136" height="72" as="geometry" />
        </mxCell>
        <mxCell id="rF9rNR6BdO1XXaO5pgB1-44" style="edgeStyle=orthogonalEdgeStyle;rounded=0;orthogonalLoop=1;jettySize=auto;html=1;entryX=0;entryY=0.5;entryDx=0;entryDy=0;dashed=1;shape=link;" edge="1" parent="1" source="rF9rNR6BdO1XXaO5pgB1-3" target="rF9rNR6BdO1XXaO5pgB1-2">
          <mxGeometry relative="1" as="geometry" />
        </mxCell>
        <mxCell id="rF9rNR6BdO1XXaO5pgB1-3" value="vibraniumdome-opensearch&lt;div&gt;&lt;br&gt;&lt;/div&gt;&lt;div&gt;&lt;br&gt;&lt;/div&gt;&lt;div&gt;&lt;br&gt;&lt;/div&gt;&lt;div&gt;&lt;br&gt;&lt;/div&gt;&lt;div&gt;&lt;br&gt;&lt;/div&gt;&lt;div&gt;&lt;br&gt;&lt;/div&gt;&lt;div&gt;&lt;br&gt;&lt;/div&gt;&lt;div&gt;&lt;br&gt;&lt;/div&gt;&lt;div&gt;&lt;br&gt;&lt;/div&gt;&lt;div&gt;&lt;br&gt;&lt;/div&gt;&lt;div&gt;&lt;br&gt;&lt;/div&gt;" style="rounded=0;whiteSpace=wrap;html=1;" vertex="1" parent="1">
          <mxGeometry x="160" y="293" width="580" height="181" as="geometry" />
        </mxCell>
        <mxCell id="rF9rNR6BdO1XXaO5pgB1-4" value="name：vibraniumdome-app&amp;nbsp;&amp;nbsp;&lt;div&gt;image：node前端镜像&lt;/div&gt;&lt;div&gt;端口映射：&lt;span style=&quot;background-color: transparent; color: light-dark(rgb(0, 0, 0), rgb(255, 255, 255));&quot;&gt;3000:3000&lt;/span&gt;&lt;/div&gt;" style="rounded=1;whiteSpace=wrap;html=1;align=center;" vertex="1" parent="1">
          <mxGeometry x="199.5" y="127" width="180" height="60" as="geometry" />
        </mxCell>
        <mxCell id="rF9rNR6BdO1XXaO5pgB1-5" value="启动 http server&amp;nbsp;&amp;nbsp;&lt;div&gt;端口：5001&lt;/div&gt;" style="rounded=0;whiteSpace=wrap;html=1;" vertex="1" parent="1">
          <mxGeometry x="684.5" y="217.25" width="99" height="47" as="geometry" />
        </mxCell>
        <mxCell id="rF9rNR6BdO1XXaO5pgB1-6" value="name：vibraniumdome-opensearch-node-1&lt;div&gt;image：opensearchproject/opensearch:2.9.0&amp;nbsp;&lt;div&gt;&lt;div&gt;&amp;nbsp;&lt;span style=&quot;background-color: transparent; color: light-dark(rgb(0, 0, 0), rgb(255, 255, 255));&quot;&gt;端口映射：&lt;/span&gt;&lt;span style=&quot;background-color: transparent; color: light-dark(rgb(0, 0, 0), rgb(255, 255, 255));&quot;&gt;9200:9200&amp;nbsp;&amp;nbsp;&lt;/span&gt;&lt;span style=&quot;background-color: transparent; color: light-dark(rgb(0, 0, 0), rgb(255, 255, 255));&quot;&gt;9600:9600&lt;/span&gt;&lt;/div&gt;&lt;/div&gt;&lt;/div&gt;" style="rounded=1;whiteSpace=wrap;html=1;" vertex="1" parent="1">
          <mxGeometry x="175" y="324" width="260" height="60" as="geometry" />
        </mxCell>
        <mxCell id="rF9rNR6BdO1XXaO5pgB1-7" value="name：vibraniumdome-opensearch-node-2&lt;div&gt;image：opensearchproject/opensearch:2.9.0&amp;nbsp;&lt;/div&gt;" style="rounded=1;whiteSpace=wrap;html=1;" vertex="1" parent="1">
          <mxGeometry x="465" y="324" width="250" height="60" as="geometry" />
        </mxCell>
        <mxCell id="rF9rNR6BdO1XXaO5pgB1-8" value="name：vibraniumdome-opensearch-dashboards&lt;div&gt;image：opensearchproject/opensearch-dashboards:2.9.0&lt;/div&gt;&lt;div&gt;&lt;span style=&quot;background-color: transparent; color: light-dark(rgb(0, 0, 0), rgb(255, 255, 255));&quot;&gt;端口映射：&lt;/span&gt;5601:5601&lt;/div&gt;" style="rounded=1;whiteSpace=wrap;html=1;" vertex="1" parent="1">
          <mxGeometry x="175" y="399" width="350" height="60" as="geometry" />
        </mxCell>
        <mxCell id="rF9rNR6BdO1XXaO5pgB1-9" value="name：opensearch-seeder&lt;div&gt;image：centos&lt;/div&gt;" style="rounded=1;whiteSpace=wrap;html=1;" vertex="1" parent="1">
          <mxGeometry x="545" y="399" width="180" height="60" as="geometry" />
        </mxCell>
        <mxCell id="rF9rNR6BdO1XXaO5pgB1-10" value="&lt;div&gt;name：vibraniumdome-app-db&lt;/div&gt;&lt;div&gt;image：mysql&lt;/div&gt;&lt;div&gt;&lt;span style=&quot;background-color: transparent; color: light-dark(rgb(0, 0, 0), rgb(255, 255, 255));&quot;&gt;端口映射：&lt;/span&gt;3306:3306&lt;/div&gt;" style="rounded=1;whiteSpace=wrap;html=1;" vertex="1" parent="1">
          <mxGeometry x="399.5" y="127" width="180" height="60" as="geometry" />
        </mxCell>
        <mxCell id="rF9rNR6BdO1XXaO5pgB1-12" value="" style="rounded=1;whiteSpace=wrap;html=1;" vertex="1" parent="1">
          <mxGeometry x="340" y="499.5" width="20" height="20" as="geometry" />
        </mxCell>
        <mxCell id="rF9rNR6BdO1XXaO5pgB1-13" value="：容器" style="text;html=1;align=center;verticalAlign=middle;resizable=0;points=[];autosize=1;strokeColor=none;fillColor=none;" vertex="1" parent="1">
          <mxGeometry x="350" y="494.5" width="60" height="30" as="geometry" />
        </mxCell>
        <mxCell id="rF9rNR6BdO1XXaO5pgB1-32" style="edgeStyle=orthogonalEdgeStyle;rounded=0;orthogonalLoop=1;jettySize=auto;html=1;shape=link;" edge="1" parent="1" source="rF9rNR6BdO1XXaO5pgB1-14" target="rF9rNR6BdO1XXaO5pgB1-3">
          <mxGeometry relative="1" as="geometry" />
        </mxCell>
        <mxCell id="rF9rNR6BdO1XXaO5pgB1-14" value="" style="image;html=1;image=img/lib/clip_art/people/Suit_Man_128x128.png" vertex="1" parent="1">
          <mxGeometry x="11" y="293" width="87" height="56" as="geometry" />
        </mxCell>
        <mxCell id="rF9rNR6BdO1XXaO5pgB1-42" style="edgeStyle=orthogonalEdgeStyle;rounded=0;orthogonalLoop=1;jettySize=auto;html=1;entryX=0.5;entryY=0;entryDx=0;entryDy=0;dashed=1;shape=link;" edge="1" parent="1" source="rF9rNR6BdO1XXaO5pgB1-26" target="rF9rNR6BdO1XXaO5pgB1-2">
          <mxGeometry relative="1" as="geometry" />
        </mxCell>
        <mxCell id="rF9rNR6BdO1XXaO5pgB1-26" value="大模型（LLM）&lt;div&gt;&lt;br&gt;&lt;/div&gt;&lt;div&gt;&lt;br&gt;&lt;/div&gt;&lt;div&gt;&lt;br&gt;&lt;/div&gt;&lt;div&gt;&lt;br&gt;&lt;/div&gt;" style="rounded=0;whiteSpace=wrap;html=1;" vertex="1" parent="1">
          <mxGeometry x="690.75" y="80" width="86.5" height="85" as="geometry" />
        </mxCell>
        <mxCell id="rF9rNR6BdO1XXaO5pgB1-25" value="" style="image;html=1;image=img/lib/clip_art/networking/UPS_128x128.png" vertex="1" parent="1">
          <mxGeometry x="701.5" y="103" width="65.5" height="60" as="geometry" />
        </mxCell>
        <mxCell id="rF9rNR6BdO1XXaO5pgB1-45" value="" style="endArrow=none;html=1;rounded=0;" edge="1" parent="1">
          <mxGeometry width="50" height="50" relative="1" as="geometry">
            <mxPoint x="469" y="511.15999999999997" as="sourcePoint" />
            <mxPoint x="504" y="511.5" as="targetPoint" />
          </mxGeometry>
        </mxCell>
        <mxCell id="rF9rNR6BdO1XXaO5pgB1-46" value="：正常联通" style="text;html=1;align=center;verticalAlign=middle;resizable=0;points=[];autosize=1;strokeColor=none;fillColor=none;" vertex="1" parent="1">
          <mxGeometry x="500" y="498.5" width="78" height="26" as="geometry" />
        </mxCell>
        <mxCell id="rF9rNR6BdO1XXaO5pgB1-47" value="" style="endArrow=none;html=1;rounded=0;dashed=1;" edge="1" parent="1">
          <mxGeometry width="50" height="50" relative="1" as="geometry">
            <mxPoint x="621" y="514.16" as="sourcePoint" />
            <mxPoint x="656" y="514.5" as="targetPoint" />
          </mxGeometry>
        </mxCell>
        <mxCell id="rF9rNR6BdO1XXaO5pgB1-48" value="：非正常联通" style="text;html=1;align=center;verticalAlign=middle;resizable=0;points=[];autosize=1;strokeColor=none;fillColor=none;" vertex="1" parent="1">
          <mxGeometry x="650" y="500.5" width="90" height="26" as="geometry" />
        </mxCell>
        <mxCell id="rF9rNR6BdO1XXaO5pgB1-50" value="" style="rounded=0;whiteSpace=wrap;html=1;" vertex="1" parent="1">
          <mxGeometry x="178" y="501" width="24" height="21" as="geometry" />
        </mxCell>
        <mxCell id="rF9rNR6BdO1XXaO5pgB1-51" value="：服务" style="text;html=1;align=center;verticalAlign=middle;resizable=0;points=[];autosize=1;strokeColor=none;fillColor=none;" vertex="1" parent="1">
          <mxGeometry x="202" y="498.5" width="54" height="26" as="geometry" />
        </mxCell>
      </root>
    </mxGraphModel>
  </diagram>
</mxfile>
